<?xml version="1.0" encoding="UTF-8"?>
<svg version="1.1" xmlns="http://www.w3.org/2000/svg" width="826" height="447">
<path d="M0 0 C2.54333443 2.18506286 4.4669875 4.40010918 6.5234375 7.04296875 C10.17725636 11.61024233 14.01039002 15.91427792 18.0234375 20.16796875 C22.62969799 25.05848469 26.94961066 30.07568521 31.1484375 35.32421875 C33.98808206 38.72431947 36.98731849 41.9438332 40.0234375 45.16796875 C44.62921196 50.05896319 48.9495742 55.07563963 53.1484375 60.32421875 C55.98808206 63.72431947 58.98731849 66.9438332 62.0234375 70.16796875 C66.62921196 75.05896319 70.9495742 80.07563963 75.1484375 85.32421875 C77.988083 88.7243206 80.98733121 91.94381975 84.0234375 95.16796875 C88.64638708 100.07757173 92.98944929 105.11275418 97.20703125 110.37890625 C100.88330247 114.80531038 104.82770122 118.97597987 108.75 123.18359375 C113.04325549 127.78945101 117.14673172 132.54896945 121.2265625 137.34375 C122.24187144 138.53542561 123.25750717 139.72682285 124.2734375 140.91796875 C124.78817627 141.52157227 125.30291504 142.12517578 125.83325195 142.74707031 C129.21433104 146.69262706 132.67437957 150.54907807 136.2109375 154.35546875 C139.57927197 157.98080083 142.8026577 161.68029268 145.8984375 165.54296875 C149.95009967 170.58213281 154.29698366 175.27262646 158.72607422 179.97607422 C162.74687393 184.26923175 166.47340831 188.73043226 170.1484375 193.32421875 C172.98808206 196.72431947 175.98731849 199.9438332 179.0234375 203.16796875 C183.62921196 208.05896319 187.9495742 213.07563963 192.1484375 218.32421875 C194.98808206 221.72431947 197.98731849 224.9438332 201.0234375 228.16796875 C205.62921196 233.05896319 209.9495742 238.07563963 214.1484375 243.32421875 C216.98808206 246.72431947 219.98731849 249.9438332 223.0234375 253.16796875 C226.84551641 257.22673603 230.53781197 261.31093684 234.0234375 265.66796875 C238.06423608 270.7170997 242.39499726 275.43578626 246.83203125 280.13476562 C248.40554264 281.80370035 249.96440692 283.4855129 251.5234375 285.16796875 C252.10561035 285.77447266 252.6877832 286.38097656 253.28759766 287.00585938 C253.84624512 287.61107422 254.40489258 288.21628906 254.98046875 288.83984375 C255.49198486 289.3822168 256.00350098 289.92458984 256.53051758 290.48339844 C257.5234375 292.16796875 257.5234375 292.16796875 257.26489258 294.28662109 C256.34924235 296.60996672 255.34561739 297.48353897 253.3984375 299.04296875 C249.12639818 302.60557194 245.07219501 306.35678627 241.0234375 310.16796875 C236.61343637 314.30503122 232.18470467 318.39435614 227.6015625 322.33984375 C224.1567513 325.37024157 220.80815449 328.5049089 217.44311523 331.62329102 C213.34325845 335.41976195 209.2032987 339.16825475 205.04296875 342.8984375 C200.17133505 347.28668429 195.35131426 351.73170684 190.5234375 356.16796875 C184.07246942 362.09566439 177.60625034 368.00390595 171.0859375 373.85546875 C167.69945429 376.91156336 164.34098936 379.99782487 160.98217773 383.08422852 C157.86710625 385.94399079 154.73492075 388.78312234 151.5859375 391.60546875 C147.69973152 395.09244972 143.85500943 398.6212886 140.0234375 402.16796875 C135.40053839 406.44713792 130.74568318 410.68641751 126.05078125 414.88671875 C123.70278714 417.00608283 121.38107256 419.15168985 119.0637207 421.30444336 C99.88298723 439.06235495 99.88298723 439.06235495 88.1484375 439.60546875 C77.10715906 439.16503261 70.70944566 434.20350747 63.390625 426.375 C60.08723613 422.73081986 56.9915326 418.93359126 53.93359375 415.08203125 C51.09230093 411.6466918 48.08048253 408.41062166 45.0234375 405.16796875 C40.41736254 400.27727468 36.09727696 395.26026807 31.8984375 390.01171875 C29.05879294 386.61161803 26.05955651 383.3921043 23.0234375 380.16796875 C18.41766304 375.27697431 14.0973008 370.26029787 9.8984375 365.01171875 C7.05879294 361.61161803 4.05955651 358.3921043 1.0234375 355.16796875 C-3.58233696 350.27697431 -7.9026992 345.26029787 -12.1015625 340.01171875 C-14.94120706 336.61161803 -17.94044349 333.3921043 -20.9765625 330.16796875 C-25.58233696 325.27697431 -29.9026992 320.26029787 -34.1015625 315.01171875 C-36.94120706 311.61161803 -39.94044349 308.3921043 -42.9765625 305.16796875 C-47.58233696 300.27697431 -51.9026992 295.26029787 -56.1015625 290.01171875 C-58.94120706 286.61161803 -61.94044349 283.3921043 -64.9765625 280.16796875 C-69.58233696 275.27697431 -73.9026992 270.26029787 -78.1015625 265.01171875 C-80.94120706 261.61161803 -83.94044349 258.3921043 -86.9765625 255.16796875 C-91.58233696 250.27697431 -95.9026992 245.26029787 -100.1015625 240.01171875 C-102.94120706 236.61161803 -105.94044349 233.3921043 -108.9765625 230.16796875 C-113.58233696 225.27697431 -117.9026992 220.26029787 -122.1015625 215.01171875 C-124.941208 211.6116169 -127.94045621 208.39211775 -130.9765625 205.16796875 C-135.59951208 200.25836577 -139.94257429 195.22318332 -144.16015625 189.95703125 C-148.28631451 184.98894188 -152.74556946 180.32439456 -157.14746094 175.6015625 C-160.00247603 172.52208994 -162.75838081 169.36809754 -165.4765625 166.16796875 C-166.15589844 165.40226563 -166.83523438 164.6365625 -167.53515625 163.84765625 C-173.31185032 157.08521438 -176.82095512 150.50648602 -177.9140625 141.60546875 C-176.2709624 128.69539651 -169.99806935 121.16971356 -160.6015625 112.60546875 C-159.59802734 111.67444336 -159.59802734 111.67444336 -158.57421875 110.72460938 C-155.23983682 107.64400026 -151.86281632 104.61970288 -148.4375 101.640625 C-144.53030071 98.23938366 -140.74577005 94.72072481 -136.9765625 91.16796875 C-132.56410531 87.02811249 -128.13142102 82.93773864 -123.546875 78.98828125 C-118.99845838 74.9891074 -114.59061859 70.83030167 -110.14794922 66.71435547 C-103.15749335 60.24670319 -96.1178933 53.8347865 -89.03125 47.47265625 C-84.15062218 43.06964339 -79.31664209 38.61544366 -74.4765625 34.16796875 C-68.02760621 28.24212172 -61.56701264 22.3316464 -55.04296875 16.48828125 C-53.18391227 14.80749046 -51.33871127 13.11697905 -49.50390625 11.41015625 C-34.54505724 -2.50019748 -19.38048617 -14.33666879 0 0 Z " fill="#A893E5" transform="translate(435.4765625,7.83203125)"/>
<path d="M0 0 C5.50831001 3.90841625 9.70847379 8.8906115 13.9453125 14.08984375 C14.68136719 14.99089844 15.41742188 15.89195313 16.17578125 16.8203125 C17.61800539 18.5987929 19.05675366 20.38009706 20.4921875 22.1640625 C24.46117285 26.89777274 28.71220559 31.36311078 32.9375 35.8671875 C35.79078028 38.91121388 38.55719259 42.01951252 41.28125 45.1796875 C43.26071376 47.45188886 45.2911442 49.67444247 47.3203125 51.90234375 C50.39278023 55.30067927 53.32973872 58.76574898 56.1953125 62.33984375 C60.33251072 67.45862678 64.73704412 72.27301733 69.25292969 77.05566406 C72.94087295 80.96711904 76.48073224 84.97919334 79.9453125 89.08984375 C78.5299142 92.03878015 77.17032026 94.11245247 74.8203125 96.40234375 C74.19898438 97.00820312 73.57765625 97.6140625 72.9375 98.23828125 C70.98167799 100.05604524 68.97745211 101.79567614 66.9453125 103.52734375 C56.93127514 112.28721458 48.08229505 124.38403591 46.9453125 138.08984375 C46.26166132 148.8437853 46.85444707 157.94790653 50.9453125 168.08984375 C51.3784375 169.19199219 51.3784375 169.19199219 51.8203125 170.31640625 C55.95143899 179.5745558 63.67669113 186.9632546 70.453125 194.31640625 C72.81732931 196.94741731 75.04757543 199.64157144 77.2578125 202.40234375 C81.33279695 207.45820942 85.69763244 212.17171598 90.14550781 216.89550781 C94.18446995 221.20829789 97.93463827 225.68804886 101.62890625 230.30078125 C105.30517747 234.72718538 109.24957622 238.89785487 113.171875 243.10546875 C117.47636764 247.72338136 121.58843655 252.49745982 125.68359375 257.30078125 C126.70814342 258.50146416 127.73288896 259.70197996 128.7578125 260.90234375 C129.27512939 261.50852539 129.79244629 262.11470703 130.32543945 262.73925781 C133.53033479 266.48055195 136.79740528 270.15099758 140.1328125 273.77734375 C143.30361992 277.23000071 146.32566281 280.74515341 149.2578125 284.40234375 C153.33279695 289.45820942 157.69763244 294.17171598 162.14550781 298.89550781 C166.18446995 303.20829789 169.93463827 307.68804886 173.62890625 312.30078125 C177.7563982 317.27047645 182.21724103 321.93633945 186.62060547 326.66064453 C189.47344715 329.73851685 192.22610546 332.89401166 194.9453125 336.08984375 C195.75613281 337.02183594 196.56695312 337.95382812 197.40234375 338.9140625 C198.24152344 339.90019531 199.08070313 340.88632812 199.9453125 341.90234375 C201.1209375 343.27326172 201.1209375 343.27326172 202.3203125 344.671875 C202.8565625 345.46980469 203.3928125 346.26773437 203.9453125 347.08984375 C202.8707444 350.31354804 202.3397494 350.83553296 199.8203125 352.90234375 C195.56758398 356.50257782 191.50353614 360.27425306 187.4453125 364.08984375 C183.03233421 368.22916147 178.6001964 372.32005199 174.015625 376.26953125 C169.46720838 380.2687051 165.05936859 384.42751083 160.61669922 388.54345703 C154.45219885 394.24692553 148.26023375 399.92033372 142.0078125 405.52734375 C138.12159875 409.01433169 134.27720708 412.54350436 130.4453125 416.08984375 C102.51037273 441.90566534 102.51037273 441.90566534 89.9453125 442.08984375 C75.30080223 440.54702745 66.92362494 429.64946367 57.9453125 419.08984375 C56.03066047 416.83812038 54.1140021 414.58812793 52.1953125 412.33984375 C51.42356689 411.43492187 51.42356689 411.43492187 50.63623047 410.51171875 C47.25501463 406.56573996 43.79464765 402.7090328 40.2578125 398.90234375 C36.88947803 395.27701167 33.6660923 391.57751982 30.5703125 387.71484375 C26.51929526 382.67648181 22.17307693 377.98679615 17.74487305 373.28393555 C13.70601109 368.97121243 9.9559136 364.49154734 6.26171875 359.87890625 C2.58544753 355.45250212 -1.35895122 351.28183263 -5.28125 347.07421875 C-9.57450549 342.46836149 -13.67798172 337.70884305 -17.7578125 332.9140625 C-18.77312144 331.72238689 -19.78875717 330.53098965 -20.8046875 329.33984375 C-21.31942627 328.73624023 -21.83416504 328.13263672 -22.36450195 327.51074219 C-25.74558104 323.56518544 -29.20562957 319.70873443 -32.7421875 315.90234375 C-36.11052197 312.27701167 -39.3339077 308.57751982 -42.4296875 304.71484375 C-46.48134967 299.67567969 -50.82823366 294.98518604 -55.25732422 290.28173828 C-59.27812393 285.98858075 -63.00465831 281.52738024 -66.6796875 276.93359375 C-69.51933206 273.53349303 -72.51856849 270.3139793 -75.5546875 267.08984375 C-80.16046196 262.19884931 -84.4808242 257.18217287 -88.6796875 251.93359375 C-91.519333 248.5334919 -94.51858121 245.31399275 -97.5546875 242.08984375 C-102.17763708 237.18024077 -106.52069929 232.14505832 -110.73828125 226.87890625 C-114.41455247 222.45250212 -118.35895122 218.28183263 -122.28125 214.07421875 C-126.57450549 209.46836149 -130.67798172 204.70884305 -134.7578125 199.9140625 C-135.77312144 198.72238689 -136.78875717 197.53098965 -137.8046875 196.33984375 C-138.31942627 195.73624023 -138.83416504 195.13263672 -139.36450195 194.51074219 C-142.74558839 190.56517687 -146.20579177 186.70889384 -149.7421875 182.90234375 C-154.03616989 178.26187287 -158.09230686 173.48721303 -162.05078125 168.55859375 C-163.79360217 166.41149274 -165.58880281 164.33985829 -167.4296875 162.27734375 C-173.00769389 155.81859951 -174.43891808 149.35181053 -174.328125 141.03125 C-172.99225983 126.66115749 -161.06743676 118.04307764 -151.0546875 109.08984375 C-149.38789507 107.58998349 -147.72122072 106.08999201 -146.0546875 104.58984375 C-144.84425781 103.50316406 -144.84425781 103.50316406 -143.609375 102.39453125 C-138.72874718 97.99151839 -133.89476709 93.53731866 -129.0546875 89.08984375 C-122.60100844 83.15965704 -116.13136014 77.24973197 -109.609375 71.39453125 C-104.72874718 66.99151839 -99.89476709 62.53731866 -95.0546875 58.08984375 C-88.60371942 52.16214811 -82.13750034 46.25390655 -75.6171875 40.40234375 C-72.23070429 37.34624914 -68.87223936 34.25998763 -65.51342773 31.17358398 C-61.59739849 27.57850991 -57.64764709 24.02286785 -53.6875 20.4765625 C-51.729592 18.70166371 -49.78896904 16.91457156 -47.859375 15.109375 C-19.89985853 -11.04104422 -19.89985853 -11.04104422 0 0 Z " fill="#5426AC" transform="translate(174.0546875,3.91015625)"/>
<path d="M0 0 C6.56709496 4.86766188 11.48276965 11.17740906 16.5625 17.51171875 C19.46184993 20.98383459 22.51182626 24.27566899 25.61328125 27.56640625 C30.21927939 32.45718207 34.53943427 37.47409753 38.73828125 42.72265625 C41.57792581 46.12275697 44.57716224 49.3422707 47.61328125 52.56640625 C52.21905571 57.45740069 56.53941795 62.47407713 60.73828125 67.72265625 C63.57792581 71.12275697 66.57716224 74.3422707 69.61328125 77.56640625 C74.21905571 82.45740069 78.53941795 87.47407713 82.73828125 92.72265625 C85.57792581 96.12275697 88.57716224 99.3422707 91.61328125 102.56640625 C96.21905571 107.45740069 100.53941795 112.47407713 104.73828125 117.72265625 C107.57798103 121.12282309 110.57789923 124.34150346 113.61328125 127.56640625 C134.59895796 149.94909901 134.59895796 149.94909901 134.390625 164 C133.16170924 175.37179798 126.96519074 182.28472593 118.6484375 189.3515625 C115.22592688 192.34164497 111.92529966 195.45496858 108.61328125 198.56640625 C104.20011349 202.70553096 99.76817495 206.79660605 95.18359375 210.74609375 C90.63517713 214.7452676 86.22733734 218.90407333 81.78466797 223.02001953 C74.7942121 229.48767181 67.75461205 235.8995885 60.66796875 242.26171875 C57.84549471 244.80798738 55.03955394 247.37187891 52.23828125 249.94140625 C51.74062256 250.39708984 51.24296387 250.85277344 50.73022461 251.32226562 C48.09495295 253.73775486 45.47047566 256.16385922 42.859375 258.60546875 C42.32618652 259.10127441 41.79299805 259.59708008 41.24365234 260.10791016 C39.76121927 261.48692841 38.28282722 262.87028703 36.8046875 264.25390625 C34.34373353 266.3683979 31.94720029 268.00286471 29.11328125 269.56640625 C17.75436895 257.47714087 17.75436895 257.47714087 12.67578125 251.12890625 C8.64816996 246.107184 4.31982269 241.44057864 -0.08959961 236.75805664 C-4.1102992 232.46496625 -7.83676269 228.00385133 -11.51171875 223.41015625 C-14.35136331 220.01005553 -17.35059974 216.7905418 -20.38671875 213.56640625 C-24.99249321 208.67541181 -29.31285545 203.65873537 -33.51171875 198.41015625 C-36.35136331 195.01005553 -39.35059974 191.7905418 -42.38671875 188.56640625 C-46.99249321 183.67541181 -51.31285545 178.65873537 -55.51171875 173.41015625 C-58.35136331 170.01005553 -61.35059974 166.7905418 -64.38671875 163.56640625 C-68.99249321 158.67541181 -73.31285545 153.65873537 -77.51171875 148.41015625 C-80.35136331 145.01005553 -83.35059974 141.7905418 -86.38671875 138.56640625 C-90.99249321 133.67541181 -95.31285545 128.65873537 -99.51171875 123.41015625 C-102.87433543 119.38386522 -106.47380329 115.59667679 -110.07006836 111.77978516 C-114.26446793 107.30287408 -118.17475621 102.68247411 -121.984375 97.87109375 C-123.84256142 95.50029529 -123.84256142 95.50029529 -126.1953125 93.51171875 C-126.75347656 92.86976562 -127.31164062 92.2278125 -127.88671875 91.56640625 C-127.54296055 88.06016237 -126.10980777 86.46824581 -123.5703125 84.140625 C-122.88775391 83.50833984 -122.20519531 82.87605469 -121.50195312 82.22460938 C-120.78330078 81.57427734 -120.06464844 80.92394531 -119.32421875 80.25390625 C-118.2868457 79.29581055 -118.2868457 79.29581055 -117.22851562 78.31835938 C-113.13036751 74.5486742 -108.9587556 70.86899745 -104.76000977 67.2121582 C-102.00779633 64.79424203 -99.31921764 62.31110887 -96.63671875 59.81640625 C-95.51056933 58.77327267 -94.38426364 57.73030776 -93.2578125 56.6875 C-92.69690918 56.16784668 -92.13600586 55.64819336 -91.55810547 55.11279297 C-84.57036039 48.64764875 -77.53427276 42.23728805 -70.44921875 35.87890625 C-67.06273554 32.82281164 -63.70427061 29.73655013 -60.34545898 26.65014648 C-56.42994975 23.0555498 -52.48442628 19.49654699 -48.515625 15.9609375 C-46.55202776 14.17240094 -44.63220783 12.36399214 -42.7265625 10.515625 C-30.68124207 -1.08160455 -16.27005075 -10.14349523 0 0 Z " fill="#5426AC" transform="translate(691.88671875,6.43359375)"/>
</svg>
